<svg xmlns="http://www.w3.org/2000/svg" viewBox="0 0 400 300">
  <defs>
    <linearGradient id="bgc" x1="0" y1="0" x2="1" y2="1">
      <stop offset="0%" stop-color="#0A1428"/>
      <stop offset="100%" stop-color="#050A1A"/>
    </linearGradient>
    <linearGradient id="cyanc" x1="0" y1="0" x2="1" y2="0">
      <stop offset="0%" stop-color="#29B6F6"/>
      <stop offset="100%" stop-color="#1E88E5"/>
    </linearGradient>
  </defs>
  <rect width="400" height="300" fill="url(#bgc)"/>
  <g transform="translate(200,150)">
    <!-- DB9 left -->
    <g transform="translate(-100,0)">
      <path d="M -25 -22 L 25 -22 L 30 -12 L 30 12 L 25 22 L -25 22 Z" fill="#1a2a4a" stroke="url(#cyanc)" stroke-width="2"/>
      <g fill="#29B6F6">
        <circle cx="-15" cy="-10" r="2"/>
        <circle cx="-5" cy="-10" r="2"/>
        <circle cx="5" cy="-10" r="2"/>
        <circle cx="15" cy="-10" r="2"/>
        <circle cx="-10" cy="0" r="2"/>
        <circle cx="0" cy="0" r="2"/>
        <circle cx="10" cy="0" r="2"/>
        <circle cx="-5" cy="10" r="2"/>
        <circle cx="5" cy="10" r="2"/>
      </g>
    </g>
    <!-- Cable curve -->
    <path d="M -75 0 Q -40 -20 0 0 Q 40 20 75 0" stroke="url(#cyanc)" stroke-width="8" fill="none" stroke-linecap="round"/>
    <path d="M -75 0 Q -40 -20 0 0 Q 40 20 75 0" stroke="#0A1428" stroke-width="3" fill="none" stroke-linecap="round"/>
    <!-- DB9 right (rotated) -->
    <g transform="translate(100,0) scale(-1,1)">
      <path d="M -25 -22 L 25 -22 L 30 -12 L 30 12 L 25 22 L -25 22 Z" fill="#1a2a4a" stroke="url(#cyanc)" stroke-width="2"/>
      <g fill="#29B6F6">
        <circle cx="-15" cy="-10" r="2"/>
        <circle cx="-5" cy="-10" r="2"/>
        <circle cx="5" cy="-10" r="2"/>
        <circle cx="15" cy="-10" r="2"/>
        <circle cx="-10" cy="0" r="2"/>
        <circle cx="0" cy="0" r="2"/>
        <circle cx="10" cy="0" r="2"/>
        <circle cx="-5" cy="10" r="2"/>
        <circle cx="5" cy="10" r="2"/>
      </g>
    </g>
  </g>
  <text x="200" y="270" text-anchor="middle" fill="#29B6F6" font-family="Orbitron, sans-serif" font-size="14" font-weight="700" letter-spacing="2">CABLE DB9 · 2M</text>
</svg>
